<svg width="44" height="54" viewBox="0 0 44 54" fill="none" xmlns="http://www.w3.org/2000/svg">
<path d="M31.4801 33.9071C30.9255 33.6381 30.289 33.5916 29.7012 33.7771C29.1133 33.9625 28.6187 34.3658 28.3188 34.9043C28.0795 35.2933 27.8401 35.6722 27.5908 36.0412C27.1631 36.682 26.7038 37.301 26.2146 37.8961C25.6915 38.5294 25.035 39.0393 24.2919 39.3893C23.5489 39.7393 22.7377 39.9208 21.9163 39.9208C21.095 39.9208 20.2838 39.7393 19.5407 39.3893C18.7977 39.0393 18.1412 38.5294 17.6181 37.8961C17.1394 37.2978 16.6807 36.6695 16.2419 36.0213C13.9998 32.5703 12.4518 28.7155 11.6844 24.6723C11.2291 22.4567 10.9424 20.2097 10.8267 17.9508C10.7506 16.5009 11.1922 15.0711 12.0727 13.9166C12.9531 12.7622 14.2152 11.9582 15.6335 11.648H15.7133C17.7655 11.2157 19.8446 10.9225 21.9363 10.7704C24.0277 10.9196 26.1067 11.2095 28.1592 11.638H28.229C29.6455 11.9525 30.9043 12.7598 31.781 13.9159C32.6577 15.0721 33.0953 16.502 33.0159 17.9508C33.0159 18.3895 33.0159 18.8383 32.9262 19.307C32.8961 19.6258 32.9297 19.9473 33.0251 20.2529C33.1205 20.5585 33.2757 20.8421 33.4818 21.0871C33.6878 21.3321 33.9406 21.5337 34.2253 21.6801C34.51 21.8265 34.821 21.9148 35.1401 21.9398L41.0439 22.4085C41.3611 22.4358 41.6805 22.4001 41.9838 22.3035C42.2871 22.2068 42.5683 22.0511 42.8111 21.8453C43.054 21.6395 43.2537 21.3878 43.3989 21.1045C43.544 20.8211 43.6317 20.5119 43.6568 20.1946C43.9377 16.7221 43.9143 13.2316 43.587 9.76318C43.5054 8.95035 43.2622 8.16202 42.8717 7.44447C42.4813 6.72691 41.9514 6.09459 41.3132 5.58462C35.7684 1.20661 25.6661 0.229286 22.7341 -8.54861e-05C22.193 -0.0399597 21.6497 -0.0399597 21.1085 -8.5488e-05C18.1866 0.229286 8.07424 1.20661 2.52943 5.57465C1.89099 6.08358 1.36154 6.71583 0.97261 7.43372C0.583684 8.1516 0.343249 8.94043 0.265631 9.7532C-0.462375 17.113 -1.13054 41.237 19.1539 53.1045C19.994 53.5942 20.9489 53.8522 21.9213 53.8522C22.8937 53.8522 23.8487 53.5942 24.6887 53.1045C30.1467 49.9469 34.6793 45.4108 37.8327 39.9505C38.1555 39.3935 38.2444 38.7312 38.0799 38.1088C37.9154 37.4863 37.511 36.9544 36.9551 36.6296L36.8056 36.5498L31.4801 33.9071Z" fill="#FFC247"/>
</svg>
