<svg width="36" height="36" viewBox="0 0 36 36" fill="none" xmlns="http://www.w3.org/2000/svg">
<path d="M32.14 0H3.86C2.83626 0 1.85446 0.406677 1.13057 1.13057C0.406677 1.85446 0 2.83626 0 3.86L0 32.14C0 33.1637 0.406677 34.1455 1.13057 34.8694C1.85446 35.5933 2.83626 36 3.86 36H14.86V23.76H9.82V18H14.89V13.61C14.89 8.61 17.89 5.86 22.41 5.86C23.9076 5.87978 25.4016 6.01014 26.88 6.25V11.15H24.36C21.89 11.15 21.11 12.68 21.11 14.26V18H26.64L25.76 23.76H21.11V36H32.11C32.6194 36.004 33.1246 35.907 33.5964 35.7148C34.0682 35.5226 34.4972 35.2389 34.8588 34.8801C35.2205 34.5213 35.5075 34.0944 35.7033 33.6241C35.8992 33.1538 36 32.6494 36 32.14V3.86C36 2.83626 35.5933 1.85446 34.8694 1.13057C34.1455 0.406677 33.1637 0 32.14 0V0Z" fill="white"/>
</svg>
