<svg width="130" height="95" viewBox="0 0 130 95" fill="none" xmlns="http://www.w3.org/2000/svg">
<g clip-path="url(#clip0_30_8356)">
<path d="M45.6896 41.4449V38.4449H33.0996V41.4449H37.4796V53.4449H33.0996V56.4449H45.6896V53.4449H40.8996V41.4449H45.6896Z" fill="#02033B"/>
<path d="M66.5898 41.565H61.5898V46.505C61.5898 46.505 64.2998 46.425 66.5298 46.425C68.7598 46.425 69.3198 45.945 69.3198 43.715C69.3198 41.165 66.6098 41.555 66.6098 41.555" fill="#02033B"/>
<path d="M52.0996 60.765H78.0996V34.235H52.0996V60.765ZM72.8896 52.075V56.235H69.2996V52.335C69.2996 52.335 69.2996 49.335 67.2296 49.335C65.1596 49.335 61.5696 49.415 61.5696 49.415V56.345H58.0696V38.455H68.4296C70.7596 38.325 72.7596 40.105 72.8896 42.445C72.8896 42.445 72.8896 42.445 72.8896 42.455C72.9096 42.665 72.9096 42.875 72.8896 43.085C72.8896 47.945 70.1896 48.185 70.1896 48.185C70.1896 48.185 72.8896 48.345 72.8896 52.085" fill="#02033B"/>
<path d="M82.9199 38.455V41.455H85.3899V53.455H82.9199V56.405H98.1399V50.565H95.1399V53.435H88.6599V48.575H93.4399V45.625H88.6599V41.405H94.8699V44.235H98.1399V38.455H82.9199Z" fill="#02033B"/>
<path d="M118.85 41.485H113.43V53.485H119.09C121.8 53.485 121.88 49.975 121.88 49.975V45.305C121.88 41.245 118.88 41.485 118.88 41.485" fill="#02033B"/>
<path d="M104 60.765H130V34.235H104V60.765ZM119.3 56.535C112.77 56.535 109.82 56.615 109.82 56.615V38.535H117.54C117.54 38.535 125.54 37.655 125.54 44.825V49.825C125.54 49.825 125.86 56.515 119.33 56.515" fill="#02033B"/>
<path d="M0 60.765H26.05V34.235H0V60.765ZM20.71 56.375H16.25L13.38 43.375L10.27 56.455H5.89L2.23 38.535H5.82L8.28 52.155L11.47 38.535L15.37 38.615L18.56 52.395L21 38.535H24.42L20.71 56.375Z" fill="#02033B"/>
</g>
<defs>
<clipPath id="clip0_30_8356">
<rect width="130" height="26.53" fill="white" transform="translate(0 34.235)"/>
</clipPath>
</defs>
</svg>
