<svg width="130" height="95" viewBox="0 0 130 95" fill="none" xmlns="http://www.w3.org/2000/svg">
<g clip-path="url(#clip0_30_8330)">
<path fill-rule="evenodd" clip-rule="evenodd" d="M128.389 37.37C128.469 34.87 126.499 32.77 123.999 32.69H123.789C121.989 32.69 120.099 33.69 120.389 36.19C120.569 37.78 123.049 38.35 124.389 38.78C128.389 40.03 129.969 41.55 129.969 44.51C129.969 47.47 127.509 49.51 123.119 49.51C120.969 49.51 118.579 49.08 117.119 47.76L116.609 43.47H117.019C117.659 47.29 119.309 48.79 123.269 48.89C125.799 48.95 126.549 47.51 126.539 45.73C126.529 43.95 124.609 43.18 122.339 42.43C119.089 41.43 117.089 40.15 117.089 37.04C117.089 33.93 119.839 31.92 123.909 31.92C125.589 31.97 127.239 32.43 128.709 33.26V37.33L128.389 37.37Z" fill="#02033B"/>
<path fill-rule="evenodd" clip-rule="evenodd" d="M114.181 33.58C114.891 33.1 115.561 32.57 116.181 31.97C116.871 31.39 117.311 30.57 117.401 29.67C117.401 29.5 117.351 29.32 117.251 29.18C117.141 29.05 116.971 28.98 116.801 28.99C116.591 29.03 116.371 29.05 116.161 29.06C115.571 29.08 114.991 28.84 114.581 28.41C114.171 27.96 113.961 27.36 114.001 26.75C113.961 26.08 114.201 25.43 114.651 24.94C115.131 24.46 115.791 24.2 116.471 24.24C117.281 24.22 118.061 24.56 118.601 25.16C119.141 25.77 119.441 26.55 119.471 27.36C119.441 28.99 118.771 30.54 117.601 31.67C116.671 32.6 115.611 33.39 114.451 34.01L114.181 33.58Z" fill="#02033B"/>
<path fill-rule="evenodd" clip-rule="evenodd" d="M77.1709 57.45V63.01C77.1709 64.69 77.9209 65.21 78.6509 65.21C79.1209 65.18 79.5709 65.08 80.0009 64.89L80.1109 65.24C79.3009 65.75 78.3709 66.03 77.4109 66.06C76.6209 66.06 74.6709 65.78 74.6709 63.87V57.45H73.1309V56.83H74.9409L76.6509 54.17H77.1709V56.83H79.9109V57.46H77.1709V57.45Z" fill="#02033B"/>
<path fill-rule="evenodd" clip-rule="evenodd" d="M71.6608 59.47C71.7108 58.12 70.6608 56.99 69.3108 56.94H69.2908H69.1708C68.2708 56.83 67.4408 57.47 67.3308 58.38C67.3308 58.38 67.3308 58.39 67.3308 58.4C67.3108 58.54 67.3108 58.69 67.3308 58.83C67.4308 59.69 68.7808 60 69.5108 60.23C71.6708 60.91 72.5108 61.73 72.5108 63.33C72.5108 64.93 71.1808 66.05 68.8108 66.05C67.6508 66.11 66.5108 65.75 65.5808 65.05L65.3008 62.74H65.5208C65.8708 64.8 66.7608 65.61 68.9008 65.67C69.7208 65.82 70.5008 65.28 70.6608 64.46C70.6808 64.29 70.6808 64.13 70.6608 63.96C70.6608 62.96 69.6608 62.59 68.3908 62.18C66.6308 61.62 65.5508 60.94 65.5508 59.27C65.5508 57.6 67.0408 56.5 69.2308 56.5C70.1408 56.53 71.0308 56.78 71.8308 57.22V59.42L71.6608 59.47Z" fill="#02033B"/>
<path fill-rule="evenodd" clip-rule="evenodd" d="M110.45 32.24C109.11 32.24 107.45 32.98 105.73 35.15V32.24L99.9305 33.09V33.57C99.9305 33.57 101.21 33.42 101.73 33.38V47.18C101.73 47.75 101.64 48.48 100.67 48.48H99.7305V49.12H108V48.49H107C106.37 48.57 105.8 48.12 105.72 47.49C105.7 47.38 105.7 47.28 105.72 47.17V37.53C105.94 35.41 107.27 34.19 107.88 34.18C109.05 34.18 109.01 35.01 110.05 35.5C110.92 35.93 111.97 35.58 112.4 34.71C112.5 34.5 112.56 34.27 112.57 34.03C112.57 33.03 111.89 32.27 110.44 32.27" fill="#02033B"/>
<path fill-rule="evenodd" clip-rule="evenodd" d="M32.7 32.86C37.26 32.86 37.07 38.86 37.07 38.92C37.11 39.3 36.83 39.65 36.45 39.69C36.45 39.69 36.44 39.69 36.43 39.69C36.37 39.69 36.32 39.69 36.26 39.69H29.46C29.05 39.71 28.69 39.39 28.66 38.98V38.83C28.74 36.83 29.27 32.83 32.66 32.83M29.39 40.46H40.56C40.67 39.46 40.62 38.45 40.41 37.46C40.21 36.41 39.76 35.41 39.1 34.57C38 33.24 36.08 32.24 32.85 32.24C27 32.24 24 35.97 24 41.05C24 46.13 26.69 49.66 32.93 49.66C37.07 49.66 39.24 47.72 40.35 44.98L39.9 44.76C38.44 47.66 36.64 48.76 33.77 48.76C29.55 48.76 28.67 44.76 28.63 41.4C28.63 41.37 28.63 41.33 28.63 41.3C28.6 40.88 28.91 40.5 29.34 40.47H29.45" fill="#02033B"/>
<path fill-rule="evenodd" clip-rule="evenodd" d="M59.7495 56.83C62.2795 56.83 62.1895 60.07 62.1895 60.08C62.1995 60.3 62.0395 60.48 61.8295 60.51H57.9995C57.7695 60.52 57.5695 60.34 57.5495 60.11V60.04C57.5495 58.93 57.8795 56.85 59.7795 56.84M57.9695 61.06H64.1395C64.1795 60.51 64.1395 59.96 63.9995 59.42C63.8895 58.84 63.6495 58.29 63.2795 57.82C62.3995 56.87 61.1195 56.37 59.8295 56.49C57.3195 56.28 55.1195 58.15 54.9095 60.66C54.9095 60.66 54.9095 60.66 54.9095 60.67C54.8895 60.91 54.8895 61.16 54.9095 61.4C54.9095 64.33 56.3895 66.17 59.8495 66.17C61.6695 66.35 63.3795 65.27 63.9995 63.55L63.6795 63.43C63.1495 64.83 61.7795 65.73 60.2795 65.65C57.9495 65.65 57.5295 63.45 57.5095 61.57C57.4895 61.33 57.6695 61.12 57.9095 61.1" fill="#02033B"/>
<path fill-rule="evenodd" clip-rule="evenodd" d="M90.5601 32.85C95.1101 32.85 94.9301 38.9 94.9301 38.92C94.9601 39.31 94.6701 39.65 94.2801 39.69C94.2201 39.69 94.1701 39.69 94.1101 39.69H87.3101C86.8901 39.71 86.5401 39.39 86.5101 38.97V38.87C86.6001 36.87 87.1301 32.87 90.5101 32.87M87.2301 40.5H98.4101C98.5201 39.5 98.4601 38.49 98.2501 37.5C98.0801 36.46 97.6501 35.47 97.0001 34.63C95.8401 33.24 93.9401 32.24 90.7101 32.24C84.8701 32.24 81.8301 36.02 81.8301 41.1C81.8301 46.18 84.5101 49.71 90.7501 49.71C94.9001 49.71 97.0701 47.77 98.1801 45.03L97.7401 44.81C96.2701 47.71 94.4701 48.81 91.6001 48.81C87.3801 48.81 86.5001 44.81 86.4601 41.45C86.4601 41.42 86.4601 41.38 86.4601 41.35C86.4201 40.93 86.7301 40.56 87.1501 40.52H87.1701H87.2801" fill="#02033B"/>
<path fill-rule="evenodd" clip-rule="evenodd" d="M9.42 36.36H7.72C7.23 36.42 6.78 36.06 6.72 35.57C6.72 35.57 6.72 35.57 6.72 35.56V26.45C7.42 26.34 8.14 26.3 8.85 26.32C11.51 26.32 14.56 27.17 14.56 31.74C14.56 35.14 12.76 36.36 9.4 36.36M13.56 36.94C16.7 36.45 18.93 34.69 18.91 31.42C18.91 28.32 17.19 25.67 10.91 25.67H0V26.24H1.19C1.81 26.21 2.34 26.68 2.37 27.3C2.37 27.38 2.37 27.45 2.37 27.53V47.24C2.47 47.9 2.02 48.51 1.37 48.62H0V49.16H9.22V48.62H8.11C7.44 48.7 6.83 48.23 6.74 47.56C6.72 47.45 6.72 47.33 6.74 47.22V38.22C6.74 38.22 6.74 38.19 6.74 38.17C6.74 37.59 6.97 37.17 7.74 37.17H9C11 37.17 14.46 38.47 15.48 43.98C16.85 51.43 23.28 53.04 29.6 52.77V52.43C16.91 51.54 23.43 37.83 13.6 36.93" fill="#02033B"/>
<path fill-rule="evenodd" clip-rule="evenodd" d="M42.0605 55.66C42.7105 55.74 43.3105 55.28 43.3905 54.63C43.3905 54.63 43.3905 54.62 43.3905 54.61V54.5C43.4205 53.83 42.9005 53.27 42.2305 53.24C42.2205 53.24 42.2105 53.24 42.2005 53.24H42.0605C41.3905 53.19 40.7905 53.69 40.7305 54.36V54.46C40.7305 55.12 41.2605 55.67 41.9205 55.67C41.9505 55.67 41.9705 55.67 42.0005 55.67H42.1105" fill="#02033B"/>
<path fill-rule="evenodd" clip-rule="evenodd" d="M43.7306 65.45C43.4706 65.44 43.2606 65.22 43.2706 64.95C43.2706 64.95 43.2706 64.95 43.2706 64.94V56.88L39.7406 57.48L40.0906 57.87L40.7006 57.81V64.92C40.7306 65.18 40.5406 65.42 40.2806 65.45H39.6406V65.88H44.5606V65.45H43.7406H43.7306Z" fill="#02033B"/>
<path fill-rule="evenodd" clip-rule="evenodd" d="M53.6902 45.11C53.6902 47.39 51.2802 48.25 50.0902 48.11C48.0002 47.89 47.1702 46.24 47.1702 44.34C47.0102 42.87 47.9602 41.51 49.4002 41.17C50.8302 40.62 52.8602 39.99 53.6802 39.53V45.11H53.6902ZM60.0102 47.91C59.6602 48.24 59.2102 48.45 58.7302 48.49C58.2602 48.53 57.8402 48.2 57.7802 47.73C57.7302 46.85 57.7102 37 57.7102 37C57.7102 35 56.4402 32.23 50.8102 32.23C46.5402 32.23 43.6602 34.23 43.5302 36.16C43.3902 37.04 44.0002 37.87 44.8802 38.01C44.9902 38.02 45.0902 38.02 45.2002 38.01H45.4402C45.5202 38 45.5902 37.98 45.6702 37.95L45.8302 37.9C46.4602 37.56 46.8902 36.95 47.0102 36.24C47.3902 33.92 48.2302 32.71 50.7002 32.79C53.5902 32.87 53.7002 34.43 53.7002 37.07V37.43C53.7002 37.74 53.5102 38.87 51.5702 39.66C49.8302 40.05 48.0802 40.36 46.3102 40.57C44.2402 40.89 42.7402 42.73 42.8602 44.82C42.8602 47.36 44.7802 49.47 48.2602 49.57C51.0202 49.65 52.5902 48.15 53.7002 47.42C54.0202 48.55 54.9702 49.4 56.1302 49.58C57.6302 49.79 59.1502 49.33 60.2802 48.33L60.0102 47.91Z" fill="#02033B"/>
<path fill-rule="evenodd" clip-rule="evenodd" d="M74.4104 44.16C74.4604 44.77 74.3704 45.38 74.1404 45.94C73.4304 47.59 71.9104 48.06 70.1404 48.06C66.8204 48.06 65.9004 44.5 65.9004 40.61C65.9004 36.29 66.9004 33.29 70.4504 33.29C72.0104 33.22 73.4704 34.09 74.1404 35.51C74.4004 36.2 74.5004 36.93 74.4404 37.66L74.4104 44.16ZM79.8304 48.41C78.7504 48.41 78.4104 47.88 78.4104 46.98V24.38L71.7504 25.1V25.71L74.4104 25.55V34.55C73.5304 33.17 72.0404 32.29 70.4104 32.2C67.9204 32.03 65.4604 32.88 63.6104 34.56C61.8304 36.28 60.8804 38.69 61.0004 41.16C61.0004 46.05 63.5804 49.47 68.5804 49.47C70.7304 49.47 72.8104 48.68 74.4104 47.24V49.04H80.4104V48.41H79.8304Z" fill="#02033B"/>
<path fill-rule="evenodd" clip-rule="evenodd" d="M35.0006 63.12C35.1406 64.22 34.3706 65.22 33.2806 65.36C33.0406 65.39 32.8006 65.38 32.5706 65.33C30.6906 65.33 30.1706 63.33 30.1706 61.11C30.1706 58.67 30.7306 56.97 32.7406 56.97C33.6406 56.91 34.4906 57.42 34.8706 58.24C35.0006 58.62 35.0506 59.04 35.0006 59.44V63.12ZM38.0706 65.53C37.4606 65.53 37.2606 65.23 37.2606 64.72V51.92L33.4906 52.32V52.67L35.0006 52.58V57.65C34.5006 56.87 33.6606 56.37 32.7406 56.32C31.3306 56.23 29.9406 56.71 28.8906 57.66C27.8706 58.64 27.3306 60.01 27.4006 61.42C27.4006 64.19 28.8706 66.12 31.7006 66.12C32.9206 66.12 34.1006 65.66 35.0006 64.83V65.83H38.3806V65.47H38.0706V65.53Z" fill="#02033B"/>
<path fill-rule="evenodd" clip-rule="evenodd" d="M49.5995 62.24C48.4895 62.24 47.8595 61.34 47.7895 59.74C47.7195 58.14 48.6295 57.29 49.5195 57.29C50.3295 57.29 51.2495 57.84 51.2195 59.74C51.2195 61.28 50.7295 62.23 49.5795 62.24M49.6995 65.92C51.5595 65.92 52.5795 66.34 52.5195 67.71C52.5295 68.98 51.5095 70.02 50.2395 70.04C50.1395 70.04 50.0495 70.04 49.9495 70.04C48.2695 70.04 47.2395 69.15 47.1995 67.64C47.1795 67.15 47.3995 66.67 47.7995 66.38C48.3595 66 49.0495 65.85 49.7195 65.94M52.7195 56.48C53.3595 56.48 53.3395 56.94 53.9095 57.21C54.3895 57.43 54.9595 57.24 55.2095 56.78C55.2695 56.66 55.2995 56.53 55.3095 56.39C55.3095 55.83 54.9295 55.39 54.1295 55.39C53.0795 55.49 52.1295 56.07 51.5595 56.96C50.9595 56.74 50.3295 56.63 49.6895 56.62C46.7495 56.62 45.5395 57.79 45.5595 59.72C45.5495 61.11 46.5395 62.3 47.8995 62.55C46.7995 62.7 45.8995 63.34 45.8995 64.1C45.8995 65.19 47.3395 65.69 48.1695 65.75C47.3695 65.83 45.6095 65.87 45.4895 67.75C45.3695 69.63 47.3595 70.66 49.5795 70.68C53.2195 70.68 54.6395 69.08 54.6395 66.98C54.6395 64.88 52.8895 64.23 50.9095 64.23H49.1395C47.8295 64.23 47.4295 63.79 47.4295 63.47C47.4295 62.94 48.0195 62.72 48.2695 62.64C48.5195 62.56 49.2695 62.7 49.4895 62.7C51.2795 62.7 53.4895 61.97 53.4895 59.7C53.4795 59.27 53.3795 58.84 53.1995 58.45L53.1095 58.28C53.0395 58.17 52.9595 58.07 52.8795 57.97L52.7695 57.85L52.4195 57.51C52.2495 57.39 52.0795 57.27 51.8995 57.16C52.0595 56.82 52.3595 56.57 52.7195 56.47" fill="#02033B"/>
</g>
<defs>
<clipPath id="clip0_30_8330">
<rect width="130" height="46.52" fill="white" transform="translate(0 24.24)"/>
</clipPath>
</defs>
</svg>
