<svg width="130" height="95" viewBox="0 0 130 95" fill="none" xmlns="http://www.w3.org/2000/svg">
<g clip-path="url(#clip0_30_8324)">
<path d="M0 68.76H42.52V26.24H0V68.76ZM20.02 36.48C19.35 34.34 18.62 33.65 14.85 33.65H11.94C11.06 33.65 10.87 33.84 10.87 34.63V40.7H12.29C15.29 40.7 15.93 40.15 16.29 38.14H17.02V44.92H16.29C15.89 42.66 14.76 42.09 12.29 42.09H10.86V48.42C10.86 50.43 11.4 50.66 13.69 50.75V51.48H4.61V50.73C6.5 50.65 7.04 50.42 7.04 48.4V35.31C7.04 33.3 6.5 33.07 4.67 32.99V32.26H20.72L20.82 36.49H20.02V36.48ZM38.26 36.48C37.65 34.41 36.75 33.65 34.72 33.65H32.35V48.4C32.35 50.41 32.87 50.64 35.05 50.73V51.48H25.79V50.75C27.95 50.67 28.49 50.44 28.49 48.42V33.67H26.13C24.12 33.67 23.2 34.42 22.59 36.5H21.63L22.03 32.27H38.87L39.23 36.5H38.26V36.48Z" fill="#02033B"/>
<path d="M51.8791 43.93C51.8791 44.93 52.1591 45.01 53.2691 45.05V45.41H48.8491V45.05C49.7691 45.01 50.0491 44.89 50.0491 43.93V37.56C50.0491 36.56 49.7691 36.48 48.8991 36.44V36.08H56.7091L56.7491 38.15H56.3491C56.0291 37.11 55.6691 36.8 53.8391 36.8H52.4091C51.9691 36.8 51.8891 36.88 51.8891 37.28V40.23H53.4891C54.9591 40.23 55.2791 39.95 55.4391 38.99H55.7991V42.3H55.4391C55.2391 41.18 54.6791 40.91 53.4891 40.91H51.8891V43.94L51.8791 43.93ZM61.0791 43.93C61.0791 44.93 61.3591 45.01 62.4691 45.05V45.41H57.8591V45.05C58.9791 45.01 59.2491 44.89 59.2491 43.93V37.56C59.2491 36.56 59.0091 36.48 57.8591 36.44V36.08H62.4791V36.44C61.3591 36.48 61.0891 36.6 61.0891 37.56V43.93H61.0791ZM72.1091 37.8C72.1091 36.88 71.8691 36.52 70.8391 36.41V36.05H74.1491V36.41C73.1091 36.53 72.8791 36.89 72.8791 37.8V45.61H72.3991L66.0291 38.24V43.66C66.0291 44.58 66.2691 44.94 67.2991 45.05V45.41H63.9891V45.05C65.0291 44.93 65.2591 44.57 65.2591 43.66V37.37C65.0191 36.86 64.5391 36.51 63.9891 36.41V36.05H66.5391L72.1191 42.5V37.8H72.1091ZM77.0891 42.06L78.4791 38.36L79.8691 42.06H77.0891ZM83.7791 45.41V45.05C83.0591 45.05 82.8991 44.77 82.5391 43.9L79.2291 35.85H78.7891L75.3691 44.18C75.1991 44.68 74.7391 45.03 74.2191 45.06V45.42H77.2091V45.06C76.5691 45.06 76.2491 44.9 76.2491 44.46C76.3691 43.87 76.5391 43.3 76.7691 42.75H80.1591C80.4091 43.3 80.5891 43.87 80.7191 44.46C80.7191 44.9 80.3591 45.06 79.7191 45.06V45.42H83.7791V45.41ZM92.8591 37.78C92.8591 36.86 92.6191 36.5 91.5891 36.39V36.03H94.8991V36.39C93.8591 36.51 93.6291 36.87 93.6291 37.78V45.59H93.1491L86.7891 38.22V43.64C86.7891 44.56 87.0291 44.92 88.0591 45.03V45.39H84.7491V45.03C85.7891 44.91 86.0191 44.55 86.0191 43.64V37.35C85.7791 36.84 85.2991 36.49 84.7491 36.39V36.03H87.2991L92.8791 42.48V37.78H92.8591ZM104.679 43.2C103.889 44.76 102.249 45.72 100.499 45.63C97.4691 45.63 95.6391 43.64 95.6391 40.65C95.6691 37.96 97.8691 35.8 100.559 35.83H100.579C101.459 35.93 102.329 36.12 103.169 36.39C103.449 36.39 103.529 36.23 103.769 35.83H104.249L104.449 38.94H104.049C103.679 37.5 102.389 36.47 100.899 36.43C98.7091 36.43 97.7491 38.82 97.7491 40.61C97.7491 43.12 98.8191 44.83 101.179 44.83C102.519 44.78 103.739 44.04 104.409 42.88L104.689 43.2H104.679ZM109.179 43.92C109.179 44.92 109.459 45 110.569 45.04V45.4H105.959V45.04C107.079 45 107.349 44.88 107.349 43.92V37.55C107.349 36.55 107.069 36.47 105.959 36.43V36.07H110.579V36.43C109.459 36.47 109.189 36.59 109.189 37.55V43.92H109.179ZM114.389 42.05L115.779 38.35L117.169 42.05H114.389ZM121.079 45.4V45.04C120.359 45.04 120.199 44.76 119.839 43.89L116.529 35.84H116.089L112.669 44.17C112.499 44.67 112.039 45.02 111.519 45.05V45.41H114.509V45.05C113.869 45.05 113.549 44.89 113.549 44.45C113.669 43.86 113.839 43.29 114.069 42.74H117.459C117.699 43.29 117.889 43.86 118.019 44.45C118.019 44.89 117.659 45.05 117.019 45.05V45.41H121.079V45.4ZM121.919 45.4V45.04C122.799 45 123.069 44.88 123.069 43.92V37.55C123.069 36.55 122.789 36.47 121.919 36.43V36.07H126.219V36.43C125.179 36.47 124.949 36.59 124.949 37.55V44.12C124.949 44.68 125.109 44.88 126.149 44.88C127.819 44.88 128.819 44.56 129.609 42.93H129.969L129.329 45.44H121.919V45.4ZM50.8591 60.14C51.9291 60.1 52.1691 59.98 52.1691 59.02V51.85H51.0191C49.9491 51.85 49.5091 52.29 49.1891 53.56H48.7891L49.0291 51.17H57.2391L57.4791 53.56H57.0791C56.7591 52.28 56.3591 51.85 55.2491 51.85H54.0991V59.02C54.0991 60.02 54.3791 60.1 55.4191 60.14V60.5H50.9191V60.14H50.8591ZM61.6591 59.02C61.6591 60.02 61.9391 60.1 63.0491 60.14V60.5H58.4291V60.14C59.5491 60.1 59.8191 59.98 59.8191 59.02V52.65C59.8191 51.65 59.5391 51.57 58.4291 51.53V51.17H63.0591V51.53C61.9391 51.57 61.6691 51.69 61.6691 52.65V59.02H61.6591ZM72.8491 51.13H76.0791V51.49C75.1991 51.53 74.9291 51.65 74.9291 52.61V58.98C74.9291 59.98 75.2091 60.06 76.0791 60.1V60.46H71.8491V60.1C72.7691 60.06 73.0491 59.94 73.0491 58.98V52.41H73.0091L69.8991 60.58H69.4591L66.3891 52.41H66.3491V58.7C66.3491 59.62 66.5891 59.98 67.6191 60.09V60.45H64.3091V60.09C65.3491 59.97 65.5791 59.61 65.5791 58.7V52.33C65.5791 51.69 65.2991 51.45 64.3091 51.45V51.09H67.6991L70.1691 57.58L72.8391 51.13H72.8491ZM77.3891 60.49V60.13C78.2691 60.09 78.5391 59.97 78.5391 59.01V52.64C78.5391 51.64 78.2591 51.56 77.3891 51.52V51.16H85.1991L85.2391 53.23H84.8391C84.5191 52.19 84.1591 51.88 82.3291 51.88H80.8991C80.4591 51.88 80.3791 51.96 80.3791 52.36V55.31H81.9691C83.4391 55.31 83.7591 55.03 83.9191 54.07H84.2791V57.38H83.9191C83.7191 56.26 83.1591 56.03 81.9691 56.03H80.3791V59.26C80.3791 59.82 80.5391 60.02 82.2091 60.02C83.8791 60.02 84.8791 59.7 85.6691 58.07H86.0291L85.3891 60.58H77.3791V60.5H77.3891V60.49ZM87.2691 57.52H87.6291C88.0091 58.88 89.1691 59.89 90.5791 60.07C91.3891 60.14 92.0991 59.55 92.1691 58.74V58.52C92.1691 56.37 87.3091 55.97 87.3091 53.3C87.4191 51.92 88.5891 50.87 89.9791 50.91C90.8291 50.99 91.6691 51.15 92.4891 51.39C92.7491 51.39 92.9591 51.17 92.9691 50.91H93.3291V53.9H92.9691C92.7291 52.61 91.6491 51.65 90.3391 51.55C89.6291 51.47 88.9991 51.97 88.9091 52.68V52.87C88.9091 54.78 93.7691 54.82 93.7691 58.13C93.7291 59.6 92.4991 60.77 91.0291 60.73H90.8591C89.2291 60.73 88.7891 60.17 88.1491 60.17C87.9091 60.17 87.7491 60.33 87.6691 60.65H87.1891L87.2691 57.54V57.52Z" fill="#02033B"/>
</g>
<defs>
<clipPath id="clip0_30_8324">
<rect width="130" height="42.52" fill="white" transform="translate(0 26.24)"/>
</clipPath>
</defs>
</svg>
