<svg width="130" height="95" viewBox="0 0 130 95" fill="none" xmlns="http://www.w3.org/2000/svg">
<g clip-path="url(#clip0_30_8312)">
<g clip-path="url(#clip1_30_8312)">
<path fill-rule="evenodd" clip-rule="evenodd" d="M119.77 38.6899C120.09 38.5299 120.39 38.3399 120.67 38.1299H130C129.78 39.2399 129.5 40.3499 129.17 41.4399C128.17 42.4399 127.04 43.3699 125.94 44.2999C125.09 47.5499 124.16 50.7299 123.34 54.0099C121.96 55.0099 120.68 56.0099 119.34 57.0099C117.94 56.9299 116.62 57.0099 115.12 57.0099C115.2 56.2699 115.52 55.4599 115.61 54.5999C115.18 54.7999 114.76 55.0399 114.37 55.3199C113.98 55.5699 113.59 55.7999 113.17 56.0299C111.57 56.9699 109.71 57.3499 107.87 57.0899C106.59 56.8999 105.44 56.2099 104.67 55.1699C102.9 56.5399 99.4195 57.7999 96.5395 56.8999C94.6995 56.3199 93.7095 54.6199 94.1295 52.1999C93.4395 52.3099 92.7495 52.3699 92.0595 52.3899C91.8295 52.9399 91.6295 53.5099 91.4595 54.0799C90.4595 54.7899 89.4595 55.6199 88.4595 56.4199C88.1595 56.7099 87.8195 56.9599 87.4595 57.1699C86.7195 57.2399 85.9795 57.2399 85.2395 57.1699C84.4995 57.2299 83.7595 57.2299 83.0195 57.1699C84.2195 52.6899 85.4395 47.6899 86.7695 43.0299C86.8795 42.3699 87.0595 41.7299 87.2995 41.1099C87.5495 40.8099 87.8395 40.5399 88.1595 40.3199C89.0795 39.5599 90.0495 38.9199 90.9095 38.1299H94.9095C96.2495 38.1299 97.6495 37.9999 98.8195 38.1299C99.2495 38.2199 99.6495 38.3799 100.02 38.6199C100.27 38.9799 100.53 39.3499 100.77 39.7099C101.66 39.1399 102.59 38.6399 103.56 38.2099C104.73 37.8599 105.94 37.7099 107.16 37.7899C108.72 37.8499 110.16 38.4599 110.7 39.7099C111.94 38.5999 113.49 37.8999 115.14 37.7099C116.74 37.5099 118.37 37.8399 119.77 38.6499M119.24 39.0699C118.27 38.4799 117.14 38.1999 116 38.2499C115.35 38.2899 114.7 38.4199 114.08 38.6299C112.88 38.8699 111.82 39.5399 111.08 40.5099C110.49 41.4899 110.28 42.6499 110.48 43.7799C110.85 44.6199 111.36 45.3799 112 46.0399C112.57 46.7999 113.26 47.4599 113.73 48.1099C113.92 48.3499 114.07 48.6099 114.18 48.8999C114.49 49.6299 114.15 50.4699 113.43 50.7799C113.24 50.8599 113.04 50.8999 112.84 50.8899C112.73 50.8899 112.7 50.7899 112.65 50.7799C112.6 50.7699 112.51 50.7799 112.42 50.7799C111.52 50.3599 111.89 49.4699 112.05 48.5199H108.66C108.33 49.3699 108.14 50.2799 108.1 51.1899C108.2 53.0299 109.97 53.8199 111.82 53.8299C113.16 53.8899 114.48 53.5399 115.62 52.8299C116.18 52.5299 116.69 52.1299 117.12 51.6599C117.9 50.6299 118.28 49.3399 118.18 48.0499C117.94 46.8599 117.29 45.7999 116.34 45.0499C115.65 44.4699 115.02 43.8099 114.46 43.0999C114.18 42.6299 114.1 42.0799 114.24 41.5499C114.52 41.1299 115.02 40.9099 115.52 40.9899C116.68 41.1799 116.31 42.7499 116.12 43.5499C117.12 43.6299 118.35 43.5499 119.28 43.5499C119.77 42.2499 120.39 40.0399 119.28 39.0299M102.42 39.3299C102.07 39.5499 101.76 39.8099 101.49 40.1199C101.26 40.3199 101.06 40.5499 100.89 40.7999C100.74 41.1999 100.63 41.6199 100.55 42.0399C99.8295 44.5399 99.1295 47.0399 98.4795 49.4499C98.3395 49.8699 98.2295 50.2999 98.1395 50.7299C97.9195 52.0899 98.7995 53.3799 100.14 53.6699C102.53 54.2499 105.3 53.6199 106.58 52.2299C106.96 51.8199 107.28 51.3499 107.51 50.8399C107.78 50.1899 107.94 49.3099 108.19 48.4699C108.67 46.8999 109.19 45.2599 109.55 43.6899C109.8 42.8799 110 42.0499 110.15 41.2099C110.26 40.5799 110.15 39.9299 109.85 39.3699C109.35 38.8999 108.74 38.5799 108.08 38.4299C107.22 38.2599 106.35 38.2199 105.48 38.3099C104.39 38.4299 103.34 38.7699 102.39 39.3099M121.13 38.7099C120.88 39.4799 120.69 40.2799 120.56 41.0799H122.71C121.71 45.1499 120.54 49.0199 119.55 53.0799C120.62 53.1399 121.68 53.1399 122.75 53.0799C123.9 49.0799 124.9 45.1699 126.02 41.1499C126.82 41.2099 127.63 41.2099 128.43 41.1499C128.63 40.3399 128.93 39.4199 129.07 38.6699C126.07 38.6699 123.66 38.6199 121.13 38.6699M97.8595 47.6699C98.3295 47.1099 98.6695 46.4599 98.8595 45.7499C99.2995 44.6499 99.6295 43.5199 99.8595 42.3599C100.02 41.8199 100.13 41.2599 100.17 40.6899C100.26 39.8299 99.7195 39.0299 98.8895 38.7799C98.2795 38.7399 97.6595 38.7399 97.0495 38.7799H91.4795C90.1795 43.5999 88.8395 48.3699 87.6395 53.1899C88.7295 53.2499 89.8195 53.2499 90.9095 53.1899C91.3395 51.7199 91.7295 50.1899 92.1895 48.7899C94.5395 48.9399 96.5395 48.9599 97.8695 47.7399" fill="#02033B"/>
<path fill-rule="evenodd" clip-rule="evenodd" d="M53.4301 38.2498H53.5801V38.4698H53.4301C53.3801 38.3898 53.3801 38.2898 53.4301 38.2098" fill="#02033B"/>
<path fill-rule="evenodd" clip-rule="evenodd" d="M101.89 50.7799C101.89 50.6499 101.83 50.5299 101.74 50.4399C101.83 49.4999 102.03 48.5799 102.34 47.6899C102.74 46.2599 103.12 44.8899 103.54 43.3299C103.65 42.6099 103.94 41.9199 104.37 41.3299C104.96 40.8799 106.37 40.8299 106.48 41.7499C106.45 42.1099 106.38 42.4599 106.25 42.7999C105.85 44.5099 105.41 46.1899 104.94 47.8799C104.75 48.5599 104.64 49.2599 104.41 49.8799C104.32 50.1199 104.21 50.3499 104.07 50.5599C103.46 51.0999 102.58 51.1699 101.89 50.7499" fill="#02033B"/>
<path fill-rule="evenodd" clip-rule="evenodd" d="M57.5701 50.5499C57.0201 50.9799 56.2801 51.0699 55.6501 50.7699C55.1701 50.1799 55.7701 48.8599 55.9901 48.0999C56.5301 46.2299 56.9901 44.5199 57.4601 42.6799C57.5301 42.3199 57.6301 41.9699 57.7601 41.6299C58.0801 41.0499 59.8301 40.7199 59.9801 41.6299C59.9601 42.0399 59.8901 42.4399 59.7601 42.8299C59.5301 43.9199 59.1101 45.1399 58.8501 46.1799C58.5301 47.6599 58.1101 49.1299 57.5801 50.5499" fill="#02033B"/>
<path fill-rule="evenodd" clip-rule="evenodd" d="M92.9395 46.1099C93.3595 44.5099 93.7995 42.9199 94.2495 41.3299C94.9995 41.1399 96.3095 41.0799 96.4395 41.8199C96.4495 42.0899 96.4295 42.3499 96.3595 42.6099C96.1395 43.7299 95.7794 44.8199 95.2694 45.8499C94.5894 46.3199 93.7095 46.4199 92.9395 46.1099Z" fill="#02033B"/>
<path fill-rule="evenodd" clip-rule="evenodd" d="M67.5 44.7899C67.8 43.5999 68.16 42.4399 68.59 41.2899C69.51 41.4299 70.88 40.8599 70.66 42.3499C70.56 43.0199 70.13 43.8599 69.98 44.4499C69.58 44.9699 68.22 44.8399 67.5 44.7899Z" fill="#02033B"/>
<path fill-rule="evenodd" clip-rule="evenodd" d="M87.26 38.13H82.26C81.96 38.4 81.62 38.67 81.26 38.92C80.97 39.2 80.63 39.43 80.26 39.6C80.37 39.11 80.46 38.62 80.52 38.13H75.59C75.32 38.41 75.02 38.65 74.69 38.85C74.36 38.58 73.99 38.37 73.6 38.21C72.94 38.13 72.26 38.13 71.6 38.21H64.98C64.64 38.51 64.29 38.78 63.92 39.04C62.39 37.48 58.65 37.44 56.44 38.29C56.27 38.29 56.44 38.06 56.18 38.14H51.32C50.56 38.69 50 39.32 49.14 39.79C49.07 39.39 49.14 38.6 49.03 38.13H44.03C43.73 38.41 43.4 38.64 43.03 38.81C43.03 38.52 43.18 38.39 43.21 38.13H38.79C38.24 38.59 37.64 38.99 37 39.33C36.98 38.93 36.95 38.53 36.89 38.13H34.69C33.97 38.05 33.23 38.05 32.51 38.13C32 38.28 31.67 39.01 31.12 39.07C31.06 38.75 31.02 38.42 31 38.09C26.66 38.11 20.45 37.92 15.8 38.13C15.35 38.08 14.9 38.05 14.45 38.06C13.97 38.16 13.39 39.06 12.9 39.06C12.82 38.73 12.78 38.36 12.68 38.06H8C6.94 38.8 6 39.69 5 40.46C4.62 40.78 4.2 40.94 4 41.29C3.87 41.75 3.78 42.22 3.72 42.69C3.42 43.77 3.19 44.69 2.93 45.69C2 49.49 0.8 53.49 0 57.14H4.18C4.87 56.56 5.59 56.03 6.36 55.55C6.5 56.04 6.48 56.55 6.62 57.14H9.62C9.95 57.17 10.29 57.17 10.62 57.14C10.95 57.06 11.08 56.64 11.37 56.57C11.58 56.69 11.65 56.95 11.79 57.14C13.98 56.99 16.53 57.19 18.22 57.14C18.79 57.19 19.35 57.19 19.92 57.14C20.23 56.98 20.52 56.77 20.78 56.54C21.04 56.29 21.34 56.1 21.68 55.97C21.68 56.42 21.54 56.82 21.57 57.14H24.92C25.11 57.14 25.29 57.14 25.48 57.14C25.96 57.08 26.48 56.53 26.87 56.27C27.22 55.93 27.65 55.67 28.12 55.52C28.03 56.07 27.86 56.52 27.78 57.1H29.73C30.44 57.18 31.17 57.18 31.88 57.1C32.2 57.03 32.61 56.57 32.93 56.3C34 55.49 35.2 54.69 36.11 53.93C37.48 50.93 38.97 47.85 40.37 44.93C40.57 44.51 40.65 43.99 41.04 43.69C41.29 45.4 41.51 47.11 41.68 48.69C41.8 49.24 41.86 49.79 41.87 50.35C41.76 50.91 41.61 51.46 41.42 52L40.06 57.05H44.65C45.7 56.33 46.59 55.47 47.65 54.79C48.33 56.22 49.75 57.15 51.34 57.2C52.88 57.31 54.42 56.98 55.78 56.26C56.34 55.91 56.94 55.61 57.55 55.36C57.5 55.96 57.35 56.46 57.29 57.05H61.58C62.09 56.66 62.63 56.31 63.19 56C63.19 56.44 63.02 56.62 63.01 57C65.09 57.06 67.5 57 69.78 57C70.57 57.08 71.36 57.08 72.15 57C72.52 56.83 72.85 56.6 73.15 56.32C73.51 56.07 73.76 55.72 74.15 55.65C74.36 56.08 74.53 56.53 74.64 57H79.64C80.98 55.95 82.25 54.82 83.64 53.8C82.97 50.95 82.33 48.08 81.72 45.18C83.52 43.11 85.3 40.74 87 38.58C87.08 38.48 87.31 38.3 87.22 38.13M10.83 53.22C10.43 50.49 10.25 47.77 9.83 45.09C9 47.69 8.34 50.61 7.45 53.22C6.55 53.22 5.54 53.27 4.7 53.22C5.85 48.32 7.16 43.63 8.35 38.81C8.37 38.75 8.41 38.71 8.47 38.69H12.19C12.49 41 12.71 43.39 13.06 45.69C13.83 43.42 14.39 40.95 15.17 38.69C16.11 38.65 17.06 38.68 18 38.77C16.68 43.69 15.42 48.4 14 53.22H10.83ZM35.52 53.22C34.48 53.28 33.44 53.28 32.4 53.22C32.58 50.45 32.89 47.86 33.11 45.06C32.71 45.69 32.37 46.36 32.11 47.06C31.11 49.06 30.24 51.21 29.29 53.27H26.09C26.17 49.27 26.56 45.17 26.73 41.27H22.44C21.99 42.27 21.74 43.51 21.35 44.58C22.47 44.64 23.97 44.58 25.26 44.58C25.15 45.35 24.8 46.19 24.62 47.03H20.75C20.33 48.19 20.06 49.51 19.7 50.72C21.1 50.72 22.61 50.67 23.95 50.72C23.69 51.55 23.4 52.35 23.12 53.16H15.67C16.86 48.26 18.16 43.47 19.44 38.67C22.94 38.61 26.74 38.62 30.44 38.67C30.28 41.03 30.07 43.45 29.84 45.74C30.12 45.56 30.2 45.2 30.33 44.92C31.33 42.92 32.26 40.73 33.23 38.67H36.43C36.31 41.12 35.98 43.48 35.86 45.86C37.13 43.69 38.2 41.13 39.4 38.74C40.26 38.74 41.29 38.69 42.33 38.74C40.07 43.57 37.8 48.4 35.52 53.22ZM50.27 46.45C50 46.79 49.76 47.16 49.55 47.54C49.39 48.04 49.27 48.54 49.17 49.05C48.82 50.38 48.37 51.82 47.93 53.3H44.73C45.03 51.39 45.73 49.47 46.16 47.58C46.18 47.11 46.13 46.64 46 46.19C45.68 43.69 45.32 41.28 45 38.77C46.22 38.71 47 38.77 48.38 38.77C48.52 40.48 48.67 42.27 48.76 43.97C49.89 42.43 50.91 40.46 52.03 38.77C52.98 38.77 54.25 38.72 55.31 38.77C53.74 41.32 51.92 43.77 50.26 46.41M61.06 50.81C60.64 51.67 59.99 52.4 59.19 52.92C57.41 53.92 55.31 54.16 53.35 53.6C52.89 53.43 51.89 52.91 51.74 52.28C51.42 51 52.06 49.59 52.33 48.41C52.77 46.51 53.33 44.41 53.88 42.47C54.03 41.73 54.32 41.02 54.75 40.39C55.69 39.08 57.19 38.27 58.81 38.21C61.08 38 63.3 38.21 63.66 40.05C63.71 40.38 63.71 40.72 63.66 41.05C63.52 41.9 63.32 42.75 63.06 43.57C62.64 45.14 62.2 46.84 61.75 48.46C61.5 49.35 61.32 50.25 61.07 50.87M71.19 53.28C70 53.28 69.07 53.34 67.73 53.28C67.88 52.11 68.35 50.55 68.67 49.17C68.77 48.72 69.04 48.17 68.93 47.82C68.71 47.18 67.52 47.48 66.79 47.41C66.11 49.28 65.65 51.41 65.05 53.32C63.93 53.27 62.76 53.32 61.74 53.32C62.26 50.85 63 48.46 63.62 46.05C64.24 43.64 64.81 41.21 65.54 38.86H70.89C71.89 38.86 73.41 38.77 74.01 39.2C75.12 40.01 74.42 41.59 74.08 42.89C73.94 43.51 73.76 44.13 73.55 44.73C73.22 45.55 72.32 45.82 71.55 46.23C72.12 46.53 72.77 46.63 72.71 47.55C72.63 48.06 72.5 48.57 72.34 49.06C71.98 50.37 71.42 52.18 71.13 53.38M83.53 42.05C82.71 43.05 81.9 44.15 81.09 45.21C81.65 47.95 82.25 50.49 82.78 53.21C81.26 53.29 80.16 53.28 78.98 53.21C78.56 51.08 78.16 48.94 77.74 46.81C76.99 48.81 76.45 51.07 75.82 53.21H72.24C72.49 52.02 72.8 50.85 73.18 49.69C73.55 48.51 73.81 47.3 74.18 46.11C74.55 44.92 74.92 43.71 75.18 42.5C75.44 41.29 75.88 39.99 76.24 38.85C77.38 38.76 78.52 38.76 79.66 38.85C79.26 40.49 78.84 41.99 78.46 43.55C78.89 43.22 79.26 42.83 79.58 42.39C80.64 41.24 81.7 39.96 82.78 38.81C83.83 38.75 84.89 38.75 85.94 38.81C85.22 39.96 84.35 40.99 83.53 42.05Z" fill="#02033B"/>
</g>
</g>
<defs>
<clipPath id="clip0_30_8312">
<rect width="130" height="95" fill="white"/>
</clipPath>
<clipPath id="clip1_30_8312">
<rect width="130" height="19.62" fill="white" transform="translate(0 37.6899)"/>
</clipPath>
</defs>
</svg>
