<svg width="36" height="36" viewBox="0 0 36 36" fill="none" xmlns="http://www.w3.org/2000/svg">
<path d="M32.14 36H3.86C2.83626 36 1.85446 35.5933 1.13057 34.8694C0.406677 34.1455 0 33.1637 0 32.14L0 3.86C0 2.83626 0.406677 1.85446 1.13057 1.13057C1.85446 0.406677 2.83626 0 3.86 0H32.14C33.1637 0 34.1455 0.406677 34.8694 1.13057C35.5933 1.85446 36 2.83626 36 3.86V32.14C36 33.1637 35.5933 34.1455 34.8694 34.8694C34.1455 35.5933 33.1637 36 32.14 36ZM17.64 9.14C17.56 9.14 10.16 9.14 8.32 9.64C7.81358 9.77791 7.3522 10.0463 6.98195 10.4183C6.61169 10.7903 6.34552 11.2529 6.21 11.76C5.8691 13.6676 5.70175 15.6022 5.71 17.54C5.70131 19.4778 5.86866 21.4124 6.21 23.32C6.35007 23.8215 6.61827 24.278 6.98823 24.6444C7.35819 25.0109 7.81716 25.2747 8.32 25.41C10.16 25.91 17.56 25.91 17.64 25.91C17.72 25.91 25.12 25.91 26.95 25.41C27.4556 25.2803 27.9175 25.0183 28.2883 24.651C28.6591 24.2837 28.9255 23.8243 29.06 23.32C29.4062 21.4131 29.5736 19.478 29.56 17.54C29.5738 15.6053 29.4064 13.6735 29.06 11.77C28.9304 11.267 28.6724 10.8063 28.3113 10.4329C27.9502 10.0595 27.4984 9.78633 27 9.64C25.12 9.15 17.71 9.14 17.64 9.14ZM15.2 21.14V14L21.43 17.55L15.2 21.09V21.14Z" fill="white"/>
</svg>
